<svg width="32" height="32" viewBox="0 0 32 32" fill="none" xmlns="http://www.w3.org/2000/svg">
<rect x="0.5" y="0.5" width="31" height="31" rx="5.5" fill="white" stroke="#929292"/>
<path d="M21 25C21.55 25 22.0207 24.8043 22.412 24.413C22.804 24.021 23 23.55 23 23V10C23.2833 10 23.521 9.90433 23.713 9.713C23.9043 9.521 24 9.28333 24 9C24 8.71667 23.9043 8.479 23.713 8.287C23.521 8.09567 23.2833 8 23 8H19C19 7.71667 18.904 7.479 18.712 7.287C18.5207 7.09567 18.2833 7 18 7H14C13.7167 7 13.479 7.09567 13.287 7.287C13.0957 7.479 13 7.71667 13 8H9C8.71667 8 8.47933 8.09567 8.288 8.287C8.096 8.479 8 8.71667 8 9C8 9.28333 8.096 9.521 8.288 9.713C8.47933 9.90433 8.71667 10 9 10V23C9 23.55 9.19567 24.021 9.587 24.413C9.979 24.8043 10.45 25 11 25H21ZM21 10V23H11V10H21ZM19 20C19 20.2833 18.904 20.5207 18.712 20.712C18.5207 20.904 18.2833 21 18 21C17.7167 21 17.479 20.904 17.287 20.712C17.0957 20.5207 17 20.2833 17 20V13C17 12.7167 17.0957 12.479 17.287 12.287C17.479 12.0957 17.7167 12 18 12C18.2833 12 18.5207 12.0957 18.712 12.287C18.904 12.479 19 12.7167 19 13V20ZM15 20C15 20.2833 14.904 20.5207 14.712 20.712C14.5207 20.904 14.2833 21 14 21C13.7167 21 13.479 20.904 13.287 20.712C13.0957 20.5207 13 20.2833 13 20V13C13 12.7167 13.0957 12.479 13.287 12.287C13.479 12.0957 13.7167 12 14 12C14.2833 12 14.5207 12.0957 14.712 12.287C14.904 12.479 15 12.7167 15 13V20Z" fill="#EA4242"/>
</svg>
