<svg width="43" height="43" viewBox="0 0 43 43" fill="none" xmlns="http://www.w3.org/2000/svg">
<rect width="43" height="43" rx="8" fill="#EDCD0A" fill-opacity="0.2"/>
<g clip-path="url(#clip0_1260_4017)">
<path d="M27.4727 16.9727L28.5273 18.0273L19.75 26.8047L15.4727 22.5273L16.5273 21.4727L19.75 24.6953L27.4727 16.9727ZM22 10C23.1016 10 24.1641 10.1406 25.1875 10.4219C26.2109 10.7031 27.168 11.1055 28.0586 11.6289C28.9492 12.1523 29.7578 12.7773 30.4844 13.5039C31.2109 14.2305 31.8359 15.043 32.3594 15.9414C32.8828 16.8398 33.2852 17.7969 33.5664 18.8125C33.8477 19.8281 33.9922 20.8906 34 22C34 23.1016 33.8594 24.1641 33.5781 25.1875C33.2969 26.2109 32.8945 27.168 32.3711 28.0586C31.8477 28.9492 31.2227 29.7578 30.4961 30.4844C29.7695 31.2109 28.957 31.8359 28.0586 32.3594C27.1602 32.8828 26.2031 33.2852 25.1875 33.5664C24.1719 33.8477 23.1094 33.9922 22 34C20.8984 34 19.8359 33.8594 18.8125 33.5781C17.7891 33.2969 16.832 32.8945 15.9414 32.3711C15.0508 31.8477 14.2422 31.2227 13.5156 30.4961C12.7891 29.7695 12.1641 28.957 11.6406 28.0586C11.1172 27.1602 10.7148 26.207 10.4336 25.1992C10.1523 24.1914 10.0078 23.125 10 22C10 20.8984 10.1406 19.8359 10.4219 18.8125C10.7031 17.7891 11.1055 16.832 11.6289 15.9414C12.1523 15.0508 12.7773 14.2422 13.5039 13.5156C14.2305 12.7891 15.043 12.1641 15.9414 11.6406C16.8398 11.1172 17.793 10.7148 18.8008 10.4336C19.8086 10.1523 20.875 10.0078 22 10ZM22 32.5C22.9609 32.5 23.8867 32.375 24.7773 32.125C25.668 31.875 26.5039 31.5234 27.2852 31.0703C28.0664 30.6172 28.7773 30.0664 29.418 29.418C30.0586 28.7695 30.6055 28.0625 31.0586 27.2969C31.5117 26.5312 31.8672 25.6953 32.125 24.7891C32.3828 23.8828 32.5078 22.9531 32.5 22C32.5 21.0391 32.375 20.1133 32.125 19.2227C31.875 18.332 31.5234 17.4961 31.0703 16.7148C30.6172 15.9336 30.0664 15.2227 29.418 14.582C28.7695 13.9414 28.0625 13.3945 27.2969 12.9414C26.5312 12.4883 25.6953 12.1328 24.7891 11.875C23.8828 11.6172 22.9531 11.4922 22 11.5C21.0391 11.5 20.1133 11.625 19.2227 11.875C18.332 12.125 17.4961 12.4766 16.7148 12.9297C15.9336 13.3828 15.2227 13.9336 14.582 14.582C13.9414 15.2305 13.3945 15.9375 12.9414 16.7031C12.4883 17.4688 12.1328 18.3047 11.875 19.2109C11.6172 20.1172 11.4922 21.0469 11.5 22C11.5 22.9609 11.625 23.8867 11.875 24.7773C12.125 25.668 12.4766 26.5039 12.9297 27.2852C13.3828 28.0664 13.9336 28.7773 14.582 29.418C15.2305 30.0586 15.9375 30.6055 16.7031 31.0586C17.4688 31.5117 18.3047 31.8672 19.2109 32.125C20.1172 32.3828 21.0469 32.5078 22 32.5Z" fill="#EDCD0A"/>
</g>
<defs>
<clipPath id="clip0_1260_4017">
<rect width="24" height="24" fill="white" transform="translate(10 10)"/>
</clipPath>
</defs>
</svg>
