<svg width="43" height="43" viewBox="0 0 43 43" fill="none" xmlns="http://www.w3.org/2000/svg">
<rect width="43" height="43" rx="8" fill="#47BE45" fill-opacity="0.2"/>
<g clip-path="url(#clip0_1260_4007)">
<path d="M21 10C22.1016 10 23.1641 10.1406 24.1875 10.4219C25.2109 10.7031 26.1641 11.1094 27.0469 11.6406C27.9297 12.1719 28.7383 12.7969 29.4727 13.5156C30.207 14.2344 30.8359 15.043 31.3594 15.9414C31.8828 16.8398 32.2852 17.7969 32.5664 18.8125C32.8477 19.8281 32.9922 20.8906 33 22C33 23.1016 32.8594 24.1641 32.5781 25.1875C32.2969 26.2109 31.8906 27.1641 31.3594 28.0469C30.8281 28.9297 30.2031 29.7383 29.4844 30.4727C28.7656 31.207 27.957 31.8359 27.0586 32.3594C26.1602 32.8828 25.2031 33.2852 24.1875 33.5664C23.1719 33.8477 22.1094 33.9922 21 34C19.8984 34 18.8359 33.8594 17.8125 33.5781C16.7891 33.2969 15.8359 32.8906 14.9531 32.3594C14.0703 31.8281 13.2617 31.2031 12.5273 30.4844C11.793 29.7656 11.1641 28.957 10.6406 28.0586C10.1172 27.1602 9.71484 26.2031 9.43359 25.1875C9.15234 24.1719 9.00781 23.1094 9 22C9 20.8984 9.14062 19.8359 9.42188 18.8125C9.70312 17.7891 10.1094 16.8359 10.6406 15.9531C11.1719 15.0703 11.7969 14.2617 12.5156 13.5273C13.2344 12.793 14.043 12.1641 14.9414 11.6406C15.8398 11.1172 16.7969 10.7148 17.8125 10.4336C18.8281 10.1523 19.8906 10.0078 21 10ZM28.0664 18.0273L26.4727 16.4336L18.75 24.1562L15.5273 20.9336L13.9336 22.5273L18.75 27.3438L28.0664 18.0273Z" fill="#47BE45"/>
</g>
<defs>
<clipPath id="clip0_1260_4007">
<rect width="24" height="24" fill="white" transform="translate(9 10)"/>
</clipPath>
</defs>
</svg>
