<svg width="14" height="21" viewBox="0 0 14 21" fill="none" xmlns="http://www.w3.org/2000/svg">
<path d="M12.25 8.6C12.23 8.58 12.22 8.56 12.2 8.53C11.82 8.01 11.28 8 11.28 8H2.72C2.72 8 2.18 8.01 1.8 8.54C1.78 8.56 1.77 8.58 1.75 8.6C1.68 8.71 1.61 8.84 1.56 9C1.34 9.66 0.82 11.22 0 13.69V20.19C0 20.64 0.35 21 0.78 21H1.22C1.65 21 2 20.64 2 20.19V19H12V20.19C12 20.64 12.34 21 12.78 21H13.22C13.65 21 14 20.64 14 20.19V13.69C13.18 11.23 12.66 9.66 12.44 9C12.39 8.84 12.32 8.71 12.25 8.6ZM3.33 10H10.67L10.9 10.69L11.33 12H2.67L3.33 10ZM12 17H2V14H12V17ZM5.83 2C5.62186 1.41566 5.23826 0.909887 4.73169 0.551885C4.22512 0.193883 3.62031 0.00113163 3 0C1.34 0 0 1.34 0 3C0 4.65 1.34 6 3 6C4.3 6 5.41 5.16 5.83 4H11V6H13V4H14V2H5.83ZM3 4C2.45 4 2 3.55 2 3C2 2.45 2.45 2 3 2C3.55 2 4 2.45 4 3C4 3.55 3.55 4 3 4Z" fill="#0F295A"/>
</svg>
